PathFileType	4	(X/Y/Z)	OpenSim_Sub06_EMGBaseline_Accel.trc
DataRate	CameraRate	NumFrames	NumMarkers	Units	OrigDataRate	OrigDataStartFrame	OrigNumFrames
100	100	38	8	m	100	1	8270
Frame#	Time	torso_imu_offset_imu	pelvis_imu_offset_imu	tibia_r_imu_offset_imu	femur_r_imu_offset_imu	tibia_l_imu_offset_imu	femur_l_imu_offset_imu	toes_r_imu_offset_imu	toes_l_imu_offset_imu
				X1	Y1	Z1	X2	Y2	Z2	X3	Y3	Z3	X4	Y4	Z4	X5	Y5	Z5	X6	Y6	Z6	X7	Y7	Z7	X8		Y8	Z8	

1	0	8.93147121	0.04901736	6.76103342	8.86664022	0.17028655	4.73871554	9.78271354	0.69817483	2.08067000	9.50517328	-1.24726827	0.03915819	9.66175991	-0.49635674	1.50103666	9.58457542	-0.00254758	-1.89341271	4.41561516	-2.34480197	8.66032685	4.49844288	0.85308796	11.39824136
2	0.01000000	8.91970236	0.05036666	6.77863595	8.83193081	0.18797069	4.75920998	9.78077229	0.75014558	2.06232568	9.50820485	-1.25768012	0.05035123	9.73368046	-0.50303527	1.53357603	9.59321809	0.01261344	-1.84699830	4.42979736	-2.29377119	8.65956095	4.52923573	0.83147207	11.43175747
3	0.02000000	8.90359423	0.06343798	6.80476931	8.81897310	0.18894174	4.77637138	9.76782337	0.75537787	2.09254787	9.52219672	-1.32278981	0.07176058	9.73156463	-0.51083090	1.52537581	9.59038575	0.00856515	-1.85085711	4.42979168	-2.31336564	8.61557585	4.52114776	0.86629719	11.41637122
4	0.03000000	8.90562461	0.04685744	6.80174747	8.85050742	0.21370652	4.73493742	9.76510311	0.81490589	2.06819262	9.50649310	-1.31819793	0.05731562	9.75535371	-0.54095167	1.45845403	9.58977540	0.00165985	-1.83110377	4.45960548	-2.32767517	8.67773317	4.52012649	0.87064602	11.39231286
5	0.04000000	8.93100287	0.03055867	6.84092737	8.81661519	0.18158615	4.77767860	9.74645532	0.89803226	2.09430228	9.49252288	-1.36308560	0.11662653	9.70492480	-0.51758395	1.48997302	9.62383978	-0.03308652	-1.85043902	4.43386947	-2.28630358	8.64010867	4.52068810	0.85107020	11.45926827
6	0.05000000	8.89293016	0.01135835	6.82754070	8.79990998	0.17998411	4.79461810	9.75819008	0.90562454	2.11269687	9.51601689	-1.31674019	0.14742286	9.73195033	-0.49964859	1.53562695	9.60309709	0.01938158	-1.83122897	4.44199963	-2.25178931	8.62235141	4.55500065	0.87154003	11.41848333
7	0.06000000	8.86731459	0.07496266	6.81159006	8.80482620	0.17301785	4.76852286	9.78516667	0.90033368	2.10730489	9.52773466	-1.29939148	0.14395958	9.74123395	-0.50861847	1.51495550	9.62047011	0.02569912	-1.83636600	4.39109816	-2.25529862	8.64441922	4.45926863	0.89120441	11.38683972
8	0.07000000	8.86999014	0.05367954	6.80716743	8.81283730	0.20449590	4.77520056	9.76270428	0.94993416	2.09323954	9.52426556	-1.27221080	0.13075849	9.72688095	-0.54114626	1.50324139	9.60548294	0.00649457	-1.86249139	4.47960357	-2.23623731	8.59817555	4.62489695	0.87004097	11.38467755
9	0.08000000	8.87984167	0.03441458	6.81669165	8.76151909	0.14537713	4.76816446	9.78454928	0.94787613	2.08981108	9.51002744	-1.25989851	0.17808287	9.77967914	-0.53383066	1.52393127	9.62330507	0.02004781	-1.83959610	5.25482024	-1.81198688	8.22905960	5.54344650	0.64417168	10.87201346
10	0.09000000	8.84033917	0.04331102	6.84299555	8.78059447	0.17390549	4.75340953	9.79960721	0.83765372	2.14260170	9.56941536	-1.23979933	0.14079204	9.80852180	-0.44992461	1.60979591	9.65589740	0.01651129	-1.86253689	5.80058610	-1.34053758	8.29477903	5.99618228	-0.11389511	10.72123369
11	0.10000000	8.92756583	0.07584145	6.86308213	8.80564983	0.14308013	4.78733887	9.80813385	0.99327350	2.07083383	9.58475126	-1.22190470	0.10911862	9.88822396	-0.69917538	1.60981516	9.62073611	0.04892248	-1.87494295	5.01460103	-1.94420258	8.53953927	4.94060883	0.68186298	11.28192127
12	0.11000000	8.87971271	0.06504209	6.87385141	8.84559752	0.18349492	4.75274556	9.74287486	1.44766959	1.93382885	9.58954096	-1.20337424	0.10630226	9.81785343	-1.20275556	1.41197889	9.58341520	0.04135081	-1.90637750	4.45604044	-2.28526350	8.62146488	4.50061057	0.82555965	11.40604445
13	0.12000000	8.86659276	0.07433990	6.94324454	8.91248681	0.18929380	4.69515259	9.75705629	1.52386267	1.95575095	9.48990987	-1.20057543	0.07616994	9.71819316	-1.25576427	1.29710185	9.49094512	-0.01609426	-1.83894135	4.51940165	-2.28690767	8.63719835	4.45572906	0.93070979	11.45287023
14	0.13000000	8.85863150	0.07354944	6.94450100	8.90705484	0.20692133	4.72842401	9.79229195	1.12011974	2.17654876	9.43460285	-1.15943053	0.07016504	9.65470061	-0.77674302	1.55499638	9.53591028	-0.12097711	-1.71466455	4.41267955	-2.26418282	8.66054584	4.40107274	0.99830403	11.46350476
15	0.14000000	8.84333585	0.05356131	6.90918208	8.84850089	0.20361825	4.67214088	9.82017316	0.92000759	2.21257744	9.37524241	-1.09217225	0.06998121	9.58431870	-0.50921808	1.86950332	9.54264575	-0.19668275	-1.75636622	4.49432911	-2.20708530	8.64857886	4.63736778	0.88001696	11.34784194
16	0.15000000	8.79486117	0.06106391	6.93601403	8.86525042	0.20225183	4.71890563	9.72542844	1.05394516	2.12953197	9.39042574	-1.07017908	0.01250160	9.59620010	-0.72131837	1.64345447	9.64337170	-0.29019638	-1.86607312	4.60453812	-2.14323149	8.56946955	4.73508554	0.76770057	11.27432938
17	0.16000000	8.78319923	0.08380853	6.96855975	8.83392329	0.19707767	4.68492591	9.61395384	1.22697058	2.02938395	9.47812453	-1.05805052	-0.01269361	9.70169271	-0.92563468	1.35155342	9.63937315	-0.27395106	-1.97401913	4.47064450	-2.17863535	8.55565583	4.75701548	0.72766769	11.29080539
18	0.17000000	8.80582700	0.12912884	7.04983278	8.86962759	0.16727541	4.72629962	9.60810905	1.30833176	1.98483643	9.51521474	-0.99407695	-0.01515197	9.71312168	-0.96333412	1.40472925	9.66725027	-0.23583616	-2.03493207	4.64384101	-2.18038387	8.56318112	4.69362960	0.76952572	11.34937020
19	0.18000000	8.80976212	0.07460653	7.03392995	8.95850307	0.17443399	4.76068544	9.66256966	1.17524623	2.14772907	9.55583904	-1.01745831	0.00752993	9.75409236	-0.75670772	1.62738858	9.62563687	-0.22337513	-1.91812945	4.66944019	-2.03232255	8.60624186	4.76518160	0.76479345	11.31435271
20	0.19000000	8.73502679	0.09762981	6.98513554	8.99190834	0.15443056	4.74068350	9.77365808	1.03782076	2.12738891	9.54805261	-1.00638681	0.04022630	9.78059991	-0.53977051	1.76787361	9.61391324	-0.19530638	-1.85223696	4.61505522	-2.08671407	8.59288464	4.74508824	0.75468287	11.29003744
21	0.20000000	8.72874288	0.15260163	7.16252578	9.05048520	0.18617432	4.80593211	9.77503691	1.12389244	2.15788626	9.51929930	-1.01755251	0.04707601	9.74584589	-0.57052755	1.79261790	9.58458026	-0.18019600	-1.79439563	4.51437817	-2.08042287	8.61310319	4.82569628	0.75258030	11.24884831
22	0.21000000	8.67229705	0.16820733	7.25754317	9.04523611	0.19933874	4.84212050	9.76694386	1.02607504	2.24373456	9.50194383	-1.05814360	-0.02458133	9.76183405	-0.62894556	1.71665951	9.57756075	-0.13748590	-1.85170354	4.25362109	-2.18412859	8.49668907	4.58103540	0.79789198	11.27539371
23	0.22000000	8.52430172	0.14130536	7.27234166	8.98180239	0.18232577	4.88088869	9.81140623	0.76383837	2.30184586	9.49500799	-1.04889692	-0.07559965	9.86294502	-0.45751929	1.81364099	9.58483605	-0.14580346	-1.85164696	4.06254105	-2.38349244	8.48144593	4.30293692	0.92188366	11.18330690
24	0.23000000	8.38792052	0.14515493	7.47355728	8.95819127	0.23716901	4.96337433	9.93460660	0.31627964	2.22830619	9.53599121	-1.06733119	-0.10400365	9.92785974	0.01323988	1.85788970	9.73912285	-0.16357420	-1.85557223	3.92355060	-2.45715705	8.62332881	4.38740202	0.98567407	11.35997951
25	0.24000000	8.25763258	0.13772946	7.72460199	8.98925086	0.25557988	4.99869977	10.01078178	0.26273696	2.01729741	9.64120250	-1.07070342	-0.15589955	9.80693548	0.12575600	1.71112626	9.90990754	-0.26846003	-1.85353142	4.44611694	-2.28448366	8.64663227	4.30232383	1.08797437	11.41769161
26	0.25000000	8.15391532	0.03308904	7.91518505	9.10907612	0.16278747	5.06998235	9.93730981	0.43873353	2.10481321	9.66801976	-1.06120824	-0.26862193	9.81293518	-0.01671442	1.65794485	9.86972750	-0.33295999	-1.91893953	4.50025983	-2.15456169	8.57313854	4.44309229	0.91058272	11.33750704
27	0.26000000	8.33034297	-0.09707614	8.08740934	9.23050244	0.11860291	5.19231153	9.87840445	0.54300897	2.15170215	9.60903427	-1.02154923	-0.23819386	9.91213840	-0.07557307	1.43847207	9.87341646	-0.27449103	-2.00316462	4.42073221	-2.16733539	8.51901027	4.46261798	1.17414932	11.49202879
28	0.27000000	8.67013586	-0.19624139	8.17994837	9.20653533	0.06565396	5.23951268	9.94596576	0.65365703	1.94037314	9.66627498	-1.05296521	-0.25454566	9.92397274	-0.19029898	1.37353528	9.87628664	-0.17763717	-2.05510992	4.51349123	-2.22521628	8.58723692	4.70502093	0.78553945	11.44507092
29	0.28000000	8.84659786	-0.23477508	7.77259673	9.29638788	-0.00052869	5.30107102	10.06062906	0.79060845	1.74004263	9.76915867	-1.08873259	-0.26905511	9.87573950	-0.60750527	1.43875443	9.77628431	-0.15159809	-2.02244256	4.33632146	-2.37622423	8.68625424	4.83490332	0.70974337	11.36201974
30	0.29000000	9.11105886	-0.05138870	7.16433631	9.39147308	0.09422595	5.34886675	10.14883051	0.53328788	1.77673827	9.84875789	-1.07358484	-0.22051763	9.85219104	-0.88462140	1.47207104	9.70403978	-0.11031003	-1.97098122	4.65692470	-2.41928187	8.69381859	4.95524766	0.66446262	11.32140189
31	0.30000000	9.21293612	0.01204029	6.81878071	9.33471152	0.19850754	5.44536589	10.12809428	0.13156926	1.95865760	9.93300246	-0.92442675	-0.19418711	9.84573689	-0.82852274	1.48670447	9.70268736	-0.20994575	-1.97784489	4.85219066	-2.17940650	8.72281597	5.09393185	0.66775334	11.35279993
32	0.31000000	9.14310308	-0.11760666	6.47166662	9.33072163	0.29422371	5.51660633	9.91532850	0.13879165	2.02188894	9.94419201	-0.78774632	-0.24340280	9.82163586	-0.68442270	1.50118921	9.68038415	-0.30809677	-2.00828440	5.02015006	-1.98615310	8.64477913	5.10084213	0.66358679	11.31365862
33	0.32000000	9.31334593	-0.31863266	6.20863500	9.18235858	0.36895979	5.56848133	9.73491577	0.43025108	1.97927370	9.87533852	-0.76770229	-0.30414780	9.88297587	-0.64019939	1.51796310	9.63697277	-0.37877505	-2.07365412	5.07402834	-1.87622983	8.66032182	4.93431217	0.66417044	11.40034674
34	0.33000000	9.46179708	-0.42424613	6.04709890	8.92806751	0.40479815	5.53697883	9.59546794	0.67907190	2.00509134	9.85146273	-0.77119673	-0.33002870	9.76879787	-0.56477727	1.56656332	9.60253222	-0.53734282	-2.14406546	4.98585324	-1.94828405	8.62662307	4.79687196	0.76892753	11.43198125
35	0.34000000	9.42891882	-0.33311757	5.97445629	8.58858798	0.39908126	5.53405690	9.47490766	0.94527481	2.06509255	9.75922292	-0.84002718	-0.25038831	9.64544995	-0.47603472	1.50359871	9.50535421	-0.69580728	-2.08313776	4.84902127	-1.87473468	8.64604324	5.19078438	0.69245528	11.21068112
36	0.35000000	9.41137769	0.01778338	5.97005354	8.24126682	0.32311900	5.52189314	9.46885241	1.02976084	2.08831464	9.52439151	-0.97839021	-0.16814312	9.51262528	-0.16341102	1.53415158	9.49165238	-0.80425146	-2.07132955	4.84070680	-1.83464028	8.64673226	5.19157017	0.51871350	11.05652227
37	0.36000000	9.34147580	0.42373968	6.02515505	8.00221146	0.21255839	5.42945735	9.51442932	1.07380078	2.02129790	9.34226373	-1.05980535	-0.11806610	9.33478134	0.13823552	1.54364144	9.31138582	-0.86595945	-2.10377563	4.58557537	-1.81054320	8.69761492	5.19073480	0.65127766	11.03447788
38	0.37000000	9.20968059	0.55046390	6.09423510	7.83630678	0.12786309	5.43311828	9.60475680	1.17715232	2.04284289	9.22649952	-1.15710999	-0.11645946	9.25045037	0.21920430	1.58069203	9.19845040	-0.80141874	-2.07229248	4.82257712	-1.83965233	8.59216682	5.23485753	0.59136551	10.96853783
